<svg xmlns="http://www.w3.org/2000/svg" id="app-logo" viewBox="200 100 600 600">
          <!-- original complex logo paths, defined once -->
          <g transform="translate(0,-48)">
            <path
              d="
            M587.900757,611.713379 C582.531250,617.927246 576.260925,620.500854 568.486694,618.308960 C561.069336,616.217651
            557.079529,611.054565 556.165894,603.598694 C555.788025,600.515076 554.164429,599.443726 551.471436,598.752075
            C520.039001,590.679199 488.618103,582.560791 457.215668,574.371948 C454.213562,573.589111 452.225494,573.766846
            449.922821,576.451599 C445.991608,581.034973 440.422089,582.590454 434.495728,581.379456 C431.218231,580.709717
            429.376495,581.611633 427.431824,584.246216 C408.432831,609.985718 389.319183,635.640808 370.175354,661.273071
            C368.530060,663.476013 368.064545,665.370178 369.049316,668.119873 C371.345184,674.530640 369.260193,681.311523
            364.455841,684.679382 C359.644836,688.051819 352.723969,687.924805 348.059021,684.378723 C343.302795,680.763184
            341.368561,673.930054 343.471436,668.172119 C345.687988,662.102905 351.039673,658.641541 358.035614,659.301758
            C360.487213,659.533142 361.704163,658.631592 362.977112,656.907349 C382.276489,630.765259 401.589783,604.633423
            420.963409,578.546387 C422.461304,576.529358 422.586121,574.962585 421.337860,572.708862 C417.547241,565.864746
            418.226562,559.069580 423.169403,553.156799 C427.658356,547.786987 433.687012,545.669617 440.688843,547.350647
            C448.283905,549.174072 452.817108,554.066040 454.171478,561.700195 C454.565674,563.922119 455.126160,565.228271
            457.548645,565.852844 C488.006470,573.705811 518.436096,581.668030 548.877258,589.585876 C549.312073,589.698914
            549.802002,589.599976 551.272644,589.599976 C534.485657,577.505920 518.423523,565.961670 502.406586,554.354980
            C500.673767,553.099243 499.434418,553.882263 497.861359,554.606323 C485.694794,560.206604 473.420807,551.944885
            474.209869,538.547485 C474.362335,535.958984 473.597321,534.490906 471.700073,533.127991 C464.798126,528.169922
            457.906921,523.196228 451.062256,518.159668 C449.133301,516.740295 447.370148,516.209656 445.154816,517.624939
            C443.323059,518.795288 441.153259,519.710144 438.990509,519.315491 C433.354706,518.287048 430.712341,521.429321
            428.091583,525.769592 C420.514099,538.318665 412.604736,550.668823 404.712921,563.025146 C403.251373,565.313477
            402.831055,567.166321 403.907898,569.903442 C406.752350,577.133728 403.054718,584.201843 395.969086,585.948914
            C389.718170,587.490112 383.287354,583.043579 381.999146,576.289612 C380.688232,569.416260 385.629333,563.214111
            393.155914,562.804871 C395.931152,562.653992 397.302277,561.400879 398.618042,559.280762 C406.964783,545.831238
            415.351990,532.406433 423.832001,519.040710 C425.168823,516.933716 425.391144,515.585022 423.616669,513.416382
            C417.723969,506.214691 417.610321,497.785248 422.867310,490.898010 C427.359436,485.012878 436.639282,482.692169
            443.724701,485.682007 C451.370544,488.908386 455.705566,496.411438 454.207886,505.203217 C453.597412,508.786926
            454.502533,510.655762 457.321777,512.567139 C463.525665,516.773315 469.562439,521.230408 475.591492,525.687744
            C477.957611,527.437012 479.885376,527.820557 482.777893,526.235596 C493.760925,520.217468 506.508636,527.859619
            506.199371,540.453857 C506.080170,545.309631 507.797516,548.001221 511.538452,550.628601 C527.354797,561.736816
            543.007080,573.079163 558.680786,584.389404 C561.284729,586.268433 563.637939,587.298340 566.863098,585.437988
            C569.285400,584.040649 572.293152,583.317078 575.084473,584.223816 C579.031250,585.505920 581.171143,583.857788
            583.320862,580.738342 C604.028259,550.689758 624.810669,520.692627 645.656372,490.739746 C657.743225,473.372528
            669.941284,456.082092 682.211731,438.844208 C683.759644,436.669556 684.112549,435.137573 682.762390,432.638580
            C679.447266,426.502563 680.630310,420.311523 685.452637,415.817535 C690.146057,411.443695 697.269775,410.832245
            703.059387,414.306183 C707.978210,417.257660 710.484497,423.613617 709.071411,429.552765 C707.584167,435.803406
            702.455322,440.225830 695.684998,440.201935 C692.145569,440.189453 690.291687,441.643402 688.446838,444.310608
            C660.867310,484.185944 633.214783,524.010864 605.574097,563.843933 C600.159607,571.646729 594.753845,579.456055
            589.273010,587.212158 C587.949585,589.084900 587.101929,590.580750 588.561340,593.001038 C592.252197,599.121826
            591.871216,605.359314 587.900757,611.713379 z
          "
            />
            <path
              d="
            M645.847168,406.794556 C623.373108,446.181458 601.090149,485.254822 578.769653,524.306824 C577.237671,526.987183
            576.201904,529.162659 578.139648,532.468567 C582.468933,539.854553 581.307434,547.820923 575.833069,553.714417
            C570.880127,559.046631 561.875061,560.710632 555.058655,557.553223 C548.149902,554.353027 544.321228,547.064697
            545.381897,538.509155 C545.677185,536.127625 544.923218,534.767151 543.098389,533.511353 C510.156647,510.840851
            477.222290,488.159454 444.328888,465.418915 C441.928741,463.759552 439.966888,463.682220 437.557190,465.360962
            C434.249786,467.665100 430.331207,468.304565 426.548584,467.238678 C423.155609,466.282623 421.468079,467.516235
            419.583557,470.087219 C397.816528,499.783447 375.950378,529.407043 354.103485,559.044678 C352.225830,561.591919
            350.354614,564.147217 348.381348,566.619690 C344.879486,571.007568 342.251343,574.836487 344.106537,581.562317
            C346.434143,590.000793 339.057587,597.661011 330.316010,598.050476 C322.826385,598.384216 315.930481,591.628052
            315.807556,583.836060 C315.678009,575.627808 322.432068,569.004700 331.071838,569.522095 C334.432587,569.723389
            336.276154,568.595215 338.109589,566.109802 C362.640991,532.855530 387.233917,499.646698 411.812103,466.426971
            C413.705780,463.867493 415.306000,461.782440 413.102203,458.039551 C409.033722,451.129639 410.303253,444.032440
            415.479858,438.117188 C420.205231,432.717529 426.422333,430.528168 433.549927,432.709381 C441.410980,435.115051
            445.866272,440.910248 446.304718,449.292755 C446.440460,451.888184 447.421356,453.128387 449.803528,453.970123
            C473.193451,462.235199 496.557129,470.574738 519.911133,478.940826 C521.975525,479.680328 523.649902,479.796600
            525.343933,478.053131 C529.278381,474.003845 534.277344,472.812927 539.597412,473.984741 C542.463379,474.616058
            543.927917,473.548492 545.472534,471.582458 C563.897095,448.130676 582.338684,424.692261 600.818176,401.283875
            C602.316406,399.386047 602.560913,397.716705 601.698547,395.355835 C599.885498,390.392548 601.822327,384.864807
            605.874329,382.085693 C610.139954,379.160034 615.172546,379.371216 619.326416,382.650177 C623.316223,385.799591
            624.809204,391.331512 622.975342,396.170654 C621.137268,401.021179 617.018005,403.876862 611.589966,403.152374
            C608.536499,402.744843 607.115479,403.894714 605.450745,406.050049 C587.425659,429.387238 569.333923,452.673218
            551.176819,475.907867 C549.480835,478.078156 548.881104,479.765778 550.019714,482.588531 C553.597595,491.459076
            549.752686,500.274445 541.526550,503.027283 C532.428162,506.071991 524.094971,501.528046 521.647766,491.898987
            C520.903320,488.969696 519.521179,487.382050 516.668091,486.407959 C499.674011,480.605957 482.732361,474.650421
            464.835754,468.420135 C468.558899,472.246429 472.328583,474.456207 475.885620,476.917603 C499.451324,493.224640
            523.069214,509.456726 546.567871,525.859619 C549.430542,527.857849 551.560974,528.218567 554.518921,526.144348
            C557.267029,524.217163 560.736328,523.213989 564.051758,523.911133 C568.026978,524.747009 569.751526,522.877075
            571.483765,519.819519 C587.826355,490.972778 604.200989,462.143707 620.698486,433.385315 C635.289673,407.949860
            650.009155,382.587555 664.791687,357.262787 C666.391785,354.521576 666.691040,352.458984 665.042664,349.534271
            C661.516357,343.277527 662.631226,336.811554 667.413086,332.184540 C671.860840,327.880859 678.510620,327.084869
            684.022705,330.196289 C689.662415,333.379761 692.553467,339.996887 691.125732,346.454163 C689.748840,352.681793
            684.533875,356.883179 677.143188,356.943787 C674.199890,356.967926 673.484985,358.735931 672.438904,360.551178
            C663.621460,375.851257 654.829163,391.165802 645.847168,406.794556 z
          "
            />
            <path
              d="
            M351.283569,612.216187 C361.176727,615.257935 366.089233,623.527161 363.727631,632.613647 C361.539124,641.033997
            353.371582,646.354858 345.235413,644.660583 C335.763916,642.688232 330.335876,634.810303 331.786469,625.141541
            C333.129120,616.192200 340.613281,611.078552 351.283569,612.216187 z
          "
            />
            <path
              d="
            M580.933899,463.609802 C580.774170,458.784332 582.511047,455.803009 587.319641,455.690369 C591.036011,455.603271
            593.212463,457.809631 593.712524,461.304993 C594.257202,465.112823 592.344238,467.735870 588.635315,468.609711
            C584.773865,469.519501 582.376587,467.493103 580.933899,463.609802 z
          "
            />
            <path
              d="
            M624.820068,486.184692 C620.538818,486.240936 618.184265,484.247253 617.514038,480.526031 C616.955505,477.425018
            618.387939,475.074402 621.105774,473.571075 C623.810120,472.075226 626.284546,472.894257 628.366577,474.782501
            C632.091858,478.160950 630.615784,483.317688 624.820068,486.184692 z
          "
            />
            <path
              d="
            M391.873718,527.048096 C390.763000,523.225403 391.684784,520.437134 394.838593,518.588684 C397.055603,517.289307
            399.327179,517.486511 401.432251,518.902344 C403.928925,520.581665 404.667267,523.046143 404.150177,525.890869
            C403.688965,528.427917 402.036316,530.017212 399.609741,530.686279 C396.250580,531.612366 393.812439,530.197021
            391.873718,527.048096 z
          "
            />
            <path
              d="
            M376.900909,547.086853 C377.782318,542.789551 379.997437,540.384094 384.199707,540.901733 C387.570831,541.316895
            389.516357,543.626709 389.778229,546.937622 C390.044281,550.300964 388.250214,552.625793 385.082672,553.702576
            C381.271088,554.998474 378.415314,552.776794 376.900909,547.086853 z
          "
            />
            <path
              d="
            M602.566406,534.441406 C599.350708,538.046082 596.109924,537.610718 593.234192,534.897156 C590.414062,532.236206
            590.554688,528.900452 592.847473,525.955811 C594.970642,523.229004 598.030029,522.828308 600.818420,524.668274
            C604.375671,527.015564 605.023621,530.370178 602.566406,534.441406 z
          "
            />
            <path
              d="
            M608.817993,496.823425 C612.989502,497.971619 614.722839,500.513824 614.136597,504.368530 C613.728210,507.053802
            612.175964,508.960663 609.283020,509.295197 C605.448608,509.738586 602.707031,508.274719 601.860535,504.350220
            C601.046753,500.577240 603.557007,497.804993 608.817993,496.823425 z
          "
            />
            <path
              d="
            M534.781982,435.590393 C537.792664,430.259430 540.605591,428.946350 543.762695,431.355835 C546.098206,433.138245
            547.823364,435.435760 546.535767,438.637238 C545.336548,441.619019 542.936157,443.089111 539.812378,442.551880
            C536.287476,441.945679 534.220398,439.814392 534.781982,435.590393 z
          "
            />
          </g>
        </svg>