<svg xmlns="http://www.w3.org/2000/svg" viewBox="100 0 800 800" fill="#ffffff">
  <!-- White-filled variant of the app logo for rasterizing icons -->
  <g transform="translate(0,-108)">
    <path d="
            M587.900757,611.713379 C582.531250,617.927246 576.260925,620.500854 568.486694,618.308960 C561.069336,616.217651
            557.079529,611.054565 556.165894,603.598694 C555.788025,600.515076 554.164429,599.443726 551.471436,598.752075
            C520.039001,590.679199 488.618103,582.560791 457.215668,574.371948 C454.213562,573.589111 452.225494,573.766846
            449.922821,576.451599 C445.991608,581.034973 440.422089,582.590454 434.495728,581.379456 C431.218231,580.709717
            429.376495,581.611633 427.431824,584.246216 C408.432831,609.985718 389.319183,635.640808 370.175354,661.273071
            C368.530060,663.476013 368.064545,665.370178 369.049316,668.119873 C371.345184,674.530640 369.260193,681.311523
            364.455841,684.679382 C359.644836,688.051819 352.723969,687.924805 348.059021,684.378723 C343.302795,680.763184
            341.368561,673.930054 343.471436,668.172119 C345.687988,662.102905 351.039673,658.641541 358.035614,659.301758
            C360.487213,659.533142 361.704163,658.631592 362.977112,656.907349 C382.276489,630.765259 401.589783,604.633423
            420.963409,578.546387 C422.461304,576.529358 422.586121,574.962585 421.337860,572.708862 C417.547241,565.864746
            418.226562,559.069580 423.169403,553.156799 C427.658356,547.786987 433.687012,545.669617 440.688843,547.350647
            C448.283905,549.174072 452.817108,554.066040 454.171478,561.700195 C454.565674,563.922119 455.126160,565.228271
            457.548645,565.852844 C488.006470,573.705811 518.436096,581.668030 548.877258,589.585876 C549.312073,589.698914
            549.802002,589.599976 551.272644,589.599976 C534.485657,577.505920 518.423523,565.961670 502.406586,554.354980
            C500.673767,553.099243 499.434418,553.882263 497.861359,554.606323 C485.694794,560.206604 473.420807,551.944885
            474.209869,538.547485 C474.362335,535.958984 473.597321,534.490906 471.700073,533.127991 C464.798126,528.169922
            457.906921,523.196228 451.062256,518.159668 C449.133301,516.740295 447.370148,516.209656 445.154816,517.624939
            C443.323059,518.795288 441.153259,519.710144 438.990509,519.315491 C433.354706,518.287048 430.712341,521.429321
            428.091583,525.769592 C420.514099,538.318665 412.604736,550.668823 404.712921,563.025146 C403.251373,565.313477
            402.831055,567.166321 403.907898,569.903442 C406.752350,577.133728 403.054718,584.201843 395.969086,585.948914
            C389.718170,587.490112 383.287354,583.043579 381.999146,576.289612 C380.688232,569.416260 385.629333,563.214111
            393.155914,562.804871 C395.931152,562.653992 397.302277,561.400879 398.618042,559.280762 C406.964783,545.831238
            415.351990,532.406433 423.832001,519.040710 C425.168823,516.933716 425.391144,515.585022 423.616669,513.416382
            C417.723969,506.214691 417.610321,497.785248 422.867310,490.898010 C427.359436,485.012878 436.639282,482.692169
            443.724701,485.682007 C451.370544,488.908386 455.705566,496.411438 454.207886,505.203217 C453.597412,508.786926
            454.502533,510.655762 457.321777,512.567139 C463.525665,516.773315 469.562439,521.230408 475.591492,525.687744
            C477.957611,527.437012 479.885376,527.820557 482.777893,526.235596 C493.760925,520.217468 506.508636,527.859619
            506.199371,540.453857 C506.080170,545.309631 507.797516,548.001221 511.538452,550.628601 C527.354797,561.736816
            543.007080,573.079163 558.680786,584.389404 C561.284729,586.268433 563.637939,587.298340 566.863098,585.437988
            C569.285400,584.040649 572.293152,583.317078 575.084473,584.223816 C579.031250,585.505920 581.171143,583.857788
            583.320862,580.738342 C604.028259,550.689758 624.810669,520.692627 645.656372,490.739746 C657.743225,473.372528
            669.941284,456.082092 682.211731,438.844208 C683.759644,436.669556 684.112549,435.137573 682.762390,432.638580
            C679.447266,426.502563 680.630310,420.311523 685.452637,415.817535 C690.146057,411.443695 697.269775,410.832245
            703.059387,414.306183 C707.978210,417.257660 710.484497,423.613617 709.071411,429.552765 C707.584167,435.803406
            702.455322,440.225830 695.684998,440.201935 C692.145569,440.189453 690.291687,441.643402 688.446838,444.310608
            C660.867310,484.185944 633.214783,524.010864 605.574097,563.843933 C600.159607,571.646729 594.753845,579.456055
            589.273010,587.212158 C587.949585,589.084900 587.101929,590.580750 588.561340,593.001038 C592.252197,599.121826
            591.871216,605.359314 587.900757,611.713379 z" />
    <!-- Remaining paths omitted: white fill applies to all -->
  </g>
</svg>
