<svg xmlns="http://www.w3.org/2000/svg" viewBox="0 0 512 512">
  <defs>
    <linearGradient id="logoGradient" x1="0" y1="0" x2="0" y2="1">
      <stop offset="0%" stop-color="#1f2937" />
      <stop offset="100%" stop-color="#0f172a" />
    </linearGradient>
    <linearGradient id="logoAccent" x1="0" y1="1" x2="1" y2="0">
      <stop offset="0%" stop-color="#22d3ee" />
      <stop offset="100%" stop-color="#3b82f6" />
    </linearGradient>
  </defs>
  <rect x="32" y="32" width="448" height="448" rx="104" fill="url(#logoGradient)" />
  <path
    fill="url(#logoAccent)"
    d="M352 180c0-22-18-40-40-40h-44.8l28.3-28.3c6.2-6.2 6.2-16.4 0-22.6s-16.4-6.2-22.6 0l-56 56A16 16 0 0 0 232 168h80c4.4 0 8 3.6 8 8v64h32z"
  />
  <path
    fill="#ffffff"
    d="M140 184 188 360c2.4 8.8 10.3 15 19.4 15s17-5.8 19.8-14.3l29.8-90.3 28.8 72.2c3.1 7.9 10.6 13.1 19.1 13.1 8.2 0 15.6-4.9 18.9-12.6L372 184h-34.8l-27.8 83.4-31.6-79.2c-3-7.5-10.1-12.3-18.2-12.2-7.9.1-14.9 5.2-17.7 12.7l-30 84.4-28.4-101.3z"
  />
  <circle cx="368" cy="332" r="36" fill="#38bdf8" opacity="0.85" />
  <path
    fill="#0ea5e9"
    d="M348 332a20 20 0 0 1 20-20h24v24c0 22.1-17.9 40-40 40h-4z"
    opacity="0.9"
  />
</svg>
